<?xml version="1.0" encoding="UTF-8"?><svg id="_レイヤー_1" xmlns="http://www.w3.org/2000/svg" viewBox="0 0 141.13 141.13"><defs><style>.cls-1{fill:#7caa4a;}</style></defs><rect class="cls-1" x="9.64" y="103.71" width="5.51" height="5.51" rx=".44" ry=".44" transform="translate(-71.65 39.95) rotate(-45)"/><path class="cls-1" d="M93.42,22.18l4.1,4.1c.17.17.45.17.63,0l6.27-6.27c.17-.17.45-.17.63,0l7.16,7.16c.17.17.17.45,0,.63l-3.27,3.27c-.17.17-.45.17-.63,0l-3.27-3.27c-.17-.17-.45-.17-.63,0l-2.69,2.69h0s-4.14,4.14-4.14,4.14c-.17.17-.17.45,0,.63l3.82,3.82c.17.17.17.45,0,.63l-3.82,3.82c-.17.17-.17.45,0,.63l3.83,3.83c.17.17.17.45,0,.63l-3.83,3.83c-.17.17-.17.45,0,.63l3.83,3.83c.17.17.17.45,0,.63l-8.28,8.28c-.17.17-.17.45,0,.63l43.9,43.9c.17.17.17.45,0,.63l-3.83,3.83c-.17.17-.17.45,0,.63l3.83,3.83c.17.17.17.45,0,.63l-3.82,3.82c-.17.17-.17.45,0,.63l3.82,3.82c.17.17.17.45,0,.63l-8.28,8.28c-.17.17-.45.17-.63,0l-3.82-3.82c-.17-.17-.45-.17-.63,0l-3.82,3.82c-.17.17-.45.17-.63,0l-3.83-3.83c-.17-.17-.45-.17-.63,0l-3.83,3.83c-.17.17-.45.17-.63,0l-43.9-43.9c-.17-.17-.45-.17-.63,0l-8.28,8.28c-.17.17-.45.17-.63,0l-3.83-3.83c-.17-.17-.45-.17-.63,0l-3.83,3.83c-.17.17-.45.17-.63,0l-3.83-3.83c-.17-.17-.45-.17-.63,0l-3.83,3.83c-.17.17-.45.17-.63,0l-3.82-3.82c-.17-.17-.45-.17-.63,0l-4.14,4.14h0s-1.36,1.35-1.36,1.35c-.17.17-.17.45,0,.63l3.27,3.27c.17.17.17.45,0,.63l-3.27,3.27c-.17.17-.45.17-.63,0l-7.16-7.16c-.17-.17-.17-.45,0-.63l4.94-4.94c.17-.17.17-.45,0-.63l-4.1-4.1c-.17-.17-.45-.17-.63,0l-8.83,8.83c-.17.17-.45.17-.63,0l-3.27-3.27c-.17-.17-.17-.45,0-.63l8.83-8.83c.17-.17.17-.45,0-.63l-9.11-9.11c-.17-.17-.17-.45,0-.63l3.82-3.82c.17-.17.17-.45,0-.63l-8.28-8.28c-.17-.17-.17-.45,0-.63l3.83-3.83c.17-.17.17-.45,0-.63l-3.83-3.83c-.17-.17-.17-.45,0-.63l3.83-3.83c.17-.17.17-.45,0-.63l-3.82-3.82c-.17-.17-.17-.45,0-.63l3.82-3.82c.17-.17.45-.17.63,0l3.82,3.82c.17.17.45.17.63,0l3.83-3.83c.17-.17.45-.17.63,0l3.83,3.83c.17.17.45.17.63,0l3.83-3.83c.17-.17.45-.17.63,0l8.28,8.28c.17.17.45.17.63,0l17.18-17.18c.17-.17.17-.45,0-.63l-8.28-8.28c-.17-.17-.17-.45,0-.63l3.83-3.83c.17-.17.17-.45,0-.63l-3.83-3.83c-.17-.17-.17-.45,0-.63l3.83-3.83c.17-.17.17-.45,0-.63l-3.82-3.82c-.17-.17-.17-.45,0-.63l3.82-3.82c.17-.17.45-.17.63,0l3.82,3.82c.17.17.45.17.63,0l3.83-3.83c.17-.17.45-.17.63,0l3.83,3.83c.17.17.45.17.63,0l3.82-3.82c.17-.17.45-.17.63,0l8.28,8.28c.17.17.45.17.63,0l3.83-3.83c.17-.17.45-.17.63,0l9.11,9.11c.17.17.45.17.63,0l10.17-10.17c.17-.17.45-.17.63,0l3.27,3.27c.17.17.17.45,0,.63l-10.17,10.17c-.17.17-.17.45,0,.63Z"/><rect class="cls-1" x="26.06" y="112.34" width="5.51" height="5.51" rx=".44" ry=".44" transform="translate(-72.94 54.09) rotate(-45)"/><rect class="cls-1" x="105.05" y="8.31" width="5.51" height="5.51" rx=".44" ry=".44" transform="translate(23.75 79.47) rotate(-45)"/><rect class="cls-1" x="113.68" y="24.73" width="5.51" height="5.51" rx=".44" ry=".44" transform="translate(14.67 90.38) rotate(-45)"/></svg>