<?xml version="1.0" encoding="UTF-8"?><svg id="_レイヤー_1" xmlns="http://www.w3.org/2000/svg" viewBox="0 0 141.27 141.61"><defs><style>.cls-1{fill:#7caa4a;}</style></defs><rect class="cls-1" x="31.98" y="9.88" width="5.51" height="5.51" rx=".44" ry=".44" transform="translate(1.24 28.26) rotate(-45)"/><path class="cls-1" d="M119.03,93.66l-4.1,4.1c-.17.17-.17.45,0,.63l6.27,6.27c.17.17.17.45,0,.63l-7.16,7.16c-.17.17-.45.17-.63,0l-3.27-3.27c-.17-.17-.17-.45,0-.63l3.27-3.27c.17-.17.17-.45,0-.63l-2.69-2.69h0s-4.14-4.14-4.14-4.14c-.17-.17-.45-.17-.63,0l-3.82,3.82c-.17.17-.45.17-.63,0l-3.82-3.82c-.17-.17-.45-.17-.63,0l-3.83,3.83c-.17.17-.45.17-.63,0l-3.83-3.83c-.17-.17-.45-.17-.63,0l-3.83,3.83c-.17.17-.45.17-.63,0l-8.28-8.28c-.17-.17-.45-.17-.63,0l-43.9,43.9c-.17.17-.45.17-.63,0l-3.83-3.83c-.17-.17-.45-.17-.63,0l-3.83,3.83c-.17.17-.45.17-.63,0l-3.82-3.82c-.17-.17-.45-.17-.63,0l-3.82,3.82c-.17.17-.45.17-.63,0l-8.28-8.28c-.17-.17-.17-.45,0-.63l3.82-3.82c.17-.17.17-.45,0-.63l-3.82-3.82c-.17-.17-.17-.45,0-.63l3.83-3.83c.17-.17.17-.45,0-.63l-3.83-3.83c-.17-.17-.17-.45,0-.63l43.9-43.9c.17-.17.17-.45,0-.63l-8.28-8.28c-.17-.17-.17-.45,0-.63l3.83-3.83c.17-.17.17-.45,0-.63l-3.83-3.83c-.17-.17-.17-.45,0-.63l3.83-3.83c.17-.17.17-.45,0-.63l-3.83-3.83c-.17-.17-.17-.45,0-.63l3.82-3.82c.17-.17.17-.45,0-.63l-4.14-4.14h0s-1.36-1.36-1.36-1.36c-.17-.17-.45-.17-.63,0l-3.27,3.27c-.17.17-.45.17-.63,0l-3.27-3.27c-.17-.17-.17-.45,0-.63l7.16-7.16c.17-.17.45-.17.63,0l4.94,4.94c.17.17.45.17.63,0l4.1-4.1c.17-.17.17-.45,0-.63l-8.83-8.83c-.17-.17-.17-.45,0-.63l3.27-3.27c.17-.17.45-.17.63,0l8.83,8.83c.17.17.45.17.63,0l9.11-9.11c.17-.17.45-.17.63,0l3.82,3.82c.17.17.45.17.63,0l8.28-8.28c.17-.17.45-.17.63,0l3.83,3.83c.17.17.45.17.63,0l3.83-3.83c.17-.17.45-.17.63,0l3.83,3.83c.17.17.45.17.63,0l3.82-3.82c.17-.17.45-.17.63,0l3.82,3.82c.17.17.17.45,0,.63l-3.82,3.82c-.17.17-.17.45,0,.63l3.83,3.83c.17.17.17.45,0,.63l-3.83,3.83c-.17.17-.17.45,0,.63l3.83,3.83c.17.17.17.45,0,.63l-8.28,8.28c-.17.17-.17.45,0,.63l17.18,17.18c.17.17.45.17.63,0l8.28-8.28c.17-.17.45-.17.63,0l3.83,3.83c.17.17.45.17.63,0l3.83-3.83c.17-.17.45-.17.63,0l3.83,3.83c.17.17.45.17.63,0l3.82-3.82c.17-.17.45-.17.63,0l3.82,3.82c.17.17.17.45,0,.63l-3.82,3.82c-.17.17-.17.45,0,.63l3.83,3.83c.17.17.17.45,0,.63l-3.83,3.83c-.17.17-.17.45,0,.63l3.82,3.82c.17.17.17.45,0,.63l-8.28,8.28c-.17.17-.17.45,0,.63l3.83,3.83c.17.17.17.45,0,.63l-9.11,9.11c-.17.17-.17.45,0,.63l10.17,10.17c.17.17.17.45,0,.63l-3.27,3.27c-.17.17-.45.17-.63,0l-10.17-10.17c-.17-.17-.45-.17-.63,0Z"/><rect class="cls-1" x="23.35" y="26.3" width="5.51" height="5.51" rx=".44" ry=".44" transform="translate(-12.9 26.97) rotate(-45)"/><rect class="cls-1" x="127.38" y="105.29" width="5.51" height="5.51" rx=".44" ry=".44" transform="translate(-38.28 123.67) rotate(-45)"/><rect class="cls-1" x="110.96" y="113.92" width="5.51" height="5.51" rx=".44" ry=".44" transform="translate(-49.19 114.58) rotate(-45)"/></svg>