<?xml version="1.0" encoding="UTF-8"?><svg id="_レイヤー_1" xmlns="http://www.w3.org/2000/svg" viewBox="0 0 633.64 175.28"><defs><style>.cls-1{fill:#7caa4a;}</style></defs><path class="cls-1" d="M262.53,133.46v9.96c0,.82-.79,1.41-1.9,1.41h-44.87c-1.11,0-1.9-.59-1.9-1.41v-9.96c0-.82.79-1.41,1.9-1.41h11.57c1.11,0,1.9-.59,1.9-1.41v-41.25c0-.82-.79-1.41-1.9-1.41h-11.57c-1.11,0-1.9-.58-1.9-1.41v-9.96c0-.82.79-1.41,1.9-1.41h29.49c1.11,0,1.9.59,1.9,1.41v54.02c0,.82.79,1.41,1.9,1.41h11.57c1.11,0,1.9.58,1.9,1.41ZM248.45,46.77v11.41c0,.94-.94,1.61-2.24,1.61h-16.64c-1.31,0-2.24-.67-2.24-1.61v-11.41c0-.94.93-1.61,2.24-1.61h16.64c1.31,0,2.24.67,2.24,1.61Z"/><path class="cls-1" d="M341.74,63.27v10.23c0,.98.89,1.68,2.14,1.68h12.99c1.24,0,2.14.7,2.14,1.68v11.91c0,.98-.89,1.68-2.14,1.68h-15.84c-1.25,0-2.85-.7-2.85-1.68v-10.23c0-.98-.89-1.68-2.14-1.68h-26.69c-1.25,0-2.14.7-2.14,1.68v8.55c0,.98.89,1.68,2.14,1.68h12.99c1.24,0,2.14.7,2.14,1.68v10.23c0,.98.89,1.68,2.14,1.68h12.99c1.24,0,2.14.7,2.14,1.68v10.23c0,.98.89,1.68,2.14,1.68h12.99c1.24,0,2.14.7,2.14,1.68v11.91c0,.98-.89,1.68-2.14,1.68h-12.99c-1.25,0-2.14.7-2.14,1.68v10.23c0,.98-.89,1.68-2.14,1.68h-33.1c-1.25,0-2.14-.7-2.14-1.68v-10.23c0-.98-.89-1.68-2.14-1.68h-12.99c-1.25,0-2.14-.7-2.14-1.68v-11.91c0-.98.89-1.68,2.14-1.68h16.55c1.24,0,2.14.7,2.14,1.68v10.23c0,.98.89,1.68,2.13,1.68h26.69c1.25,0,2.14-.7,2.14-1.68v-8.55c0-.98-.89-1.68-2.14-1.68h-12.99c-1.25,0-2.14-.7-2.14-1.68v-10.23c0-.98-.89-1.68-2.14-1.68h-12.99c-1.25,0-2.14-.7-2.14-1.68v-10.23c0-.98-.89-1.68-2.14-1.68h-12.99c-1.25,0-2.14-.7-2.14-1.68v-11.91c0-.98.89-1.68,2.14-1.68h12.99c1.25,0,2.14-.7,2.14-1.68v-10.23c0-.98.89-1.68,2.14-1.68h33.1c1.24,0,2.14.7,2.14,1.68Z"/><path class="cls-1" d="M393.41,52.48h14.11c1.11,0,1.9.59,1.9,1.41v42.66c0,.82.79,1.41,1.9,1.41h9.04c1.11,0,1.9-.59,1.9-1.41v-8.56c0-.82.79-1.41,1.9-1.41h11.57c1.11,0,1.9-.59,1.9-1.41v-8.56c0-.82.79-1.41,1.9-1.41h14.11c1.11,0,1.9.59,1.9,1.41v9.96c0,.82-.79,1.41-1.9,1.41h-11.57c-1.11,0-1.9.59-1.9,1.41v8.56c0,.82-.79,1.41-1.9,1.41h-11.57c-1.11,0-1.9.59-1.9,1.41v7.15c0,.82.79,1.41,1.9,1.41h11.57c1.11,0,1.9.59,1.9,1.41l.32,8.56c0,.82.79,1.41,1.9,1.41h11.26c1.11,0,1.9.58,1.9,1.41v21.33c0,.82-.79,1.41-1.9,1.41h-14.11c-1.11,0-1.9-.59-1.9-1.41v-19.92c0-.82-.79-1.41-1.9-1.41h-11.1c-1.11,0-1.9-.59-1.9-1.41l-.47-8.56c0-.82-.79-1.41-1.9-1.41h-9.04c-1.11,0-1.9.59-1.9,1.41v31.29c0,.82-.79,1.41-1.9,1.41h-14.11c-1.11,0-1.9-.59-1.9-1.41V53.88c0-.82.79-1.41,1.9-1.41Z"/><path class="cls-1" d="M535.35,133.46v9.96c0,.82-.79,1.41-1.9,1.41h-44.87c-1.11,0-1.9-.59-1.9-1.41v-9.96c0-.82.79-1.41,1.9-1.41h11.57c1.11,0,1.9-.59,1.9-1.41v-41.25c0-.82-.79-1.41-1.9-1.41h-11.57c-1.11,0-1.9-.58-1.9-1.41v-9.96c0-.82.79-1.41,1.9-1.41h29.49c1.11,0,1.9.59,1.9,1.41v54.02c0,.82.79,1.41,1.9,1.41h11.57c1.11,0,1.9.58,1.9,1.41ZM521.28,46.77v11.41c0,.94-.94,1.61-2.24,1.61h-16.64c-1.31,0-2.24-.67-2.24-1.61v-11.41c0-.94.93-1.61,2.24-1.61h16.64c1.31,0,2.24.67,2.24,1.61Z"/><path class="cls-1" d="M590.93,75.21h26.95c1.11,0,1.9.59,1.9,1.41v9.96c0,.82-.79,1.41-1.9,1.41h-26.95c-1.11,0-1.9.59-1.9,1.41v41.25c0,.82.79,1.41,1.9,1.41h26.95c1.11,0,1.9.58,1.9,1.41v9.96c0,.82-.79,1.41-1.9,1.41h-29.49c-1.11,0-1.9-.59-1.9-1.41v-8.56c0-.82-.79-1.41-1.9-1.41h-11.57c-1.11,0-1.9-.59-1.9-1.41v-42.66c0-.82-.79-1.41-1.9-1.41h-11.57c-1.11,0-1.9-.58-1.9-1.41v-9.96c0-.82.79-1.41,1.9-1.41h11.57c1.11,0,1.9-.59,1.9-1.41v-19.92c0-.82.79-1.41,1.9-1.41h14.11c1.11,0,1.9.59,1.9,1.41v19.92c0,.82.79,1.41,1.9,1.41Z"/><rect class="cls-1" x="45.13" y="19.48" width="6.17" height="6.17" rx=".5" ry=".5" transform="translate(-1.83 40.7) rotate(-45)"/><path class="cls-1" d="M142.52,113.21l-4.59,4.59c-.19.19-.19.51,0,.7l7.02,7.02c.19.19.19.51,0,.7l-8.02,8.02c-.19.19-.51.19-.7,0l-3.66-3.66c-.19-.19-.19-.51,0-.7l3.66-3.66c.19-.19.19-.51,0-.7l-3.01-3.01h0s-4.63-4.63-4.63-4.63c-.19-.19-.51-.19-.7,0l-4.28,4.28c-.19.19-.51.19-.7,0l-4.28-4.28c-.19-.19-.51-.19-.7,0l-4.28,4.28c-.19.19-.51.19-.7,0l-4.28-4.28c-.19-.19-.51-.19-.7,0l-4.28,4.28c-.19.19-.51.19-.7,0l-9.26-9.26c-.19-.19-.51-.19-.7,0l-49.12,49.12c-.19.19-.51.19-.7,0l-4.28-4.28c-.19-.19-.51-.19-.7,0l-4.28,4.28c-.19.19-.51.19-.7,0l-4.28-4.28c-.19-.19-.51-.19-.7,0l-4.28,4.28c-.19.19-.51.19-.7,0l-9.26-9.26c-.19-.19-.19-.51,0-.7l4.28-4.28c.19-.19.19-.51,0-.7l-4.28-4.28c-.19-.19-.19-.51,0-.7l4.28-4.28c.19-.19.19-.51,0-.7l-4.28-4.28c-.19-.19-.19-.51,0-.7l49.12-49.12c.19-.19.19-.51,0-.7l-9.26-9.26c-.19-.19-.19-.51,0-.7l4.28-4.28c.19-.19.19-.51,0-.7l-4.28-4.28c-.19-.19-.19-.51,0-.7l4.28-4.28c.19-.19.19-.51,0-.7l-4.28-4.28c-.19-.19-.19-.51,0-.7l4.28-4.28c.19-.19.19-.51,0-.7l-4.63-4.63h0s-1.52-1.52-1.52-1.52c-.19-.19-.51-.19-.7,0l-3.66,3.66c-.19.19-.51.19-.7,0l-3.66-3.66c-.19-.19-.19-.51,0-.7l8.02-8.02c.19-.19.51-.19.7,0l5.53,5.53c.19.19.51.19.7,0l4.59-4.59c.19-.19.19-.51,0-.7l-9.88-9.88c-.19-.19-.19-.51,0-.7l3.66-3.66c.19-.19.51-.19.7,0l9.88,9.88c.19.19.51.19.7,0l10.2-10.2c.19-.19.51-.19.7,0l4.28,4.28c.19.19.51.19.7,0l9.26-9.26c.19-.19.51-.19.7,0l4.28,4.28c.19.19.51.19.7,0l4.28-4.28c.19-.19.51-.19.7,0l4.28,4.28c.19.19.51.19.7,0l4.28-4.28c.19-.19.51-.19.7,0l4.28,4.28c.19.19.19.51,0,.7l-4.28,4.28c-.19.19-.19.51,0,.7l4.28,4.28c.19.19.19.51,0,.7l-4.28,4.28c-.19.19-.19.51,0,.7l4.28,4.28c.19.19.19.51,0,.7l-9.26,9.26c-.19.19-.19.51,0,.7l19.22,19.22c.19.19.51.19.7,0l9.26-9.26c.19-.19.51-.19.7,0l4.28,4.28c.19.19.51.19.7,0l4.28-4.28c.19-.19.51-.19.7,0l4.28,4.28c.19.19.51.19.7,0l4.28-4.28c.19-.19.51-.19.7,0l4.28,4.28c.19.19.19.51,0,.7l-4.28,4.28c-.19.19-.19.51,0,.7l4.28,4.28c.19.19.19.51,0,.7l-4.28,4.28c-.19.19-.19.51,0,.7l4.28,4.28c.19.19.19.51,0,.7l-9.26,9.26c-.19.19-.19.51,0,.7l4.28,4.28c.19.19.19.51,0,.7l-10.2,10.2c-.19.19-.19.51,0,.7l11.38,11.38c.19.19.19.51,0,.7l-3.66,3.66c-.19.19-.51.19-.7,0l-11.38-11.38c-.19-.19-.51-.19-.7,0Z"/><rect class="cls-1" x="35.47" y="37.85" width="6.17" height="6.17" rx=".5" ry=".5" transform="translate(-17.65 39.25) rotate(-45)"/><rect class="cls-1" x="151.87" y="126.22" width="6.17" height="6.17" rx=".5" ry=".5" transform="translate(-46.05 147.44) rotate(-45)"/><rect class="cls-1" x="133.5" y="135.87" width="6.17" height="6.17" rx=".5" ry=".5" transform="translate(-58.25 137.28) rotate(-45)"/></svg>