<?xml version="1.0" encoding="UTF-8"?><svg id="_レイヤー_1" xmlns="http://www.w3.org/2000/svg" viewBox="0 0 159.67 148.36"><defs><style>.cls-1{fill:#7caa4a;}</style></defs><rect class="cls-1" x="105.42" y="3.96" width="5.51" height="5.51" rx=".44" ry=".44"/><path class="cls-1" d="M110.49,123.62h-5.8c-.25,0-.44.2-.44.44v8.87c0,.25-.2.44-.44.44h-10.13c-.25,0-.44-.2-.44-.44v-4.62c0-.25.2-.44.44-.44h4.62c.25,0,.44-.2.44-.44v-3.81s0,0,0,0v-5.85c0-.25-.2-.44-.44-.44h-5.41c-.25,0-.44-.2-.44-.44v-5.41c0-.25-.2-.44-.44-.44h-5.41c-.25,0-.44-.2-.44-.44v-5.41c0-.25-.2-.44-.44-.44h-5.41c-.25,0-.44-.2-.44-.44v-11.71c0-.25-.2-.44-.44-.44H17.31c-.25,0-.44-.2-.44-.44v-5.41c0-.25-.2-.44-.44-.44h-5.41c-.25,0-.44-.2-.44-.44v-5.41c0-.25-.2-.44-.44-.44h-5.41c-.25,0-.44-.2-.44-.44v-11.71c0-.25.2-.44.44-.44h5.41c.25,0,.44-.2.44-.44v-5.41c0-.25.2-.44.44-.44h5.41c.25,0,.44-.2.44-.44v-5.41c0-.25.2-.44.44-.44h62.09c.25,0,.44-.2.44-.44v-11.71c0-.25.2-.44.44-.44h5.41c.25,0,.44-.2.44-.44v-5.41c0-.25.2-.44.44-.44h5.41c.25,0,.44-.2.44-.44v-5.41c0-.25.2-.44.44-.44h5.41c.25,0,.44-.2.44-.44v-5.85h0s0-1.92,0-1.92c0-.25-.2-.44-.44-.44h-4.62c-.25,0-.44-.2-.44-.44v-4.62c0-.25.2-.44.44-.44h10.13c.25,0,.44.2.44.44v6.98c0,.25.2.44.44.44h5.8c.25,0,.44-.2.44-.44v-12.49c0-.25.2-.44.44-.44h4.62c.25,0,.44.2.44.44v12.49c0,.25.2.44.44.44h12.89c.25,0,.44.2.44.44v5.41c0,.25.2.44.44.44h11.71c.25,0,.44.2.44.44v5.41c0,.25.2.44.44.44h5.41c.25,0,.44.2.44.44v5.41c0,.25.2.44.44.44h5.41c.25,0,.44.2.44.44v5.41c0,.25-.2.44-.44.44h-5.41c-.25,0-.44.2-.44.44v5.41c0,.25-.2.44-.44.44h-5.41c-.25,0-.44.2-.44.44v5.41c0,.25-.2.44-.44.44h-11.71c-.25,0-.44.2-.44.44v24.3c0,.25.2.44.44.44h11.71c.25,0,.44.2.44.44v5.41c0,.25.2.44.44.44h5.41c.25,0,.44.2.44.44v5.41c0,.25.2.44.44.44h5.41c.25,0,.44.2.44.44v5.41c0,.25-.2.44-.44.44h-5.41c-.25,0-.44.2-.44.44v5.41c0,.25-.2.44-.44.44h-5.41c-.25,0-.44.2-.44.44v5.41c0,.25-.2.44-.44.44h-11.71c-.25,0-.44.2-.44.44v5.41c0,.25-.2.44-.44.44h-12.89c-.25,0-.44.2-.44.44v14.38c0,.25-.2.44-.44.44h-4.62c-.25,0-.44-.2-.44-.44v-14.38c0-.25-.2-.44-.44-.44Z"/><rect class="cls-1" x="87.71" y="9.47" width="5.51" height="5.51" rx=".44" ry=".44"/><rect class="cls-1" x="105.42" y="138.89" width="5.51" height="5.51" rx=".44" ry=".44"/><rect class="cls-1" x="87.71" y="133.38" width="5.51" height="5.51" rx=".44" ry=".44"/></svg>