<?xml version="1.0" encoding="UTF-8"?>
<svg xmlns="http://www.w3.org/2000/svg" viewBox="0 0 160 160" width="160" height="160" preserveAspectRatio="xMidYMid meet">
  <rect width="100%" height="100%" fill="none"/>

  <!-- 8 frames layered; discrete opacity switch; total 2s loop -->
  <!-- Frame 0: iskit_rotate2.svg -->
  <g id="frame0" opacity="0">
    <animate attributeName="opacity" dur="3s" repeatCount="indefinite" calcMode="discrete"
      keyTimes="0;0.125;1" values="1;0;0" />
<svg id="_レイヤー_1" xmlns="http://www.w3.org/2000/svg" viewBox="0 0 141.27 141.61"><defs><style>.cls-1{fill:#7caa4a;}</style></defs><rect class="cls-1" x="31.98" y="9.88" width="5.51" height="5.51" rx=".44" ry=".44" transform="translate(1.24 28.26) rotate(-45)"/><path class="cls-1" d="M119.03,93.66l-4.1,4.1c-.17.17-.17.45,0,.63l6.27,6.27c.17.17.17.45,0,.63l-7.16,7.16c-.17.17-.45.17-.63,0l-3.27-3.27c-.17-.17-.17-.45,0-.63l3.27-3.27c.17-.17.17-.45,0-.63l-2.69-2.69h0s-4.14-4.14-4.14-4.14c-.17-.17-.45-.17-.63,0l-3.82,3.82c-.17.17-.45.17-.63,0l-3.82-3.82c-.17-.17-.45-.17-.63,0l-3.83,3.83c-.17.17-.45.17-.63,0l-3.83-3.83c-.17-.17-.45-.17-.63,0l-3.83,3.83c-.17.17-.45.17-.63,0l-8.28-8.28c-.17-.17-.45-.17-.63,0l-43.9,43.9c-.17.17-.45.17-.63,0l-3.83-3.83c-.17-.17-.45-.17-.63,0l-3.83,3.83c-.17.17-.45.17-.63,0l-3.82-3.82c-.17-.17-.45-.17-.63,0l-3.82,3.82c-.17.17-.45.17-.63,0l-8.28-8.28c-.17-.17-.17-.45,0-.63l3.82-3.82c.17-.17.17-.45,0-.63l-3.82-3.82c-.17-.17-.17-.45,0-.63l3.83-3.83c.17-.17.17-.45,0-.63l-3.83-3.83c-.17-.17-.17-.45,0-.63l43.9-43.9c.17-.17.17-.45,0-.63l-8.28-8.28c-.17-.17-.17-.45,0-.63l3.83-3.83c.17-.17.17-.45,0-.63l-3.83-3.83c-.17-.17-.17-.45,0-.63l3.83-3.83c.17-.17.17-.45,0-.63l-3.83-3.83c-.17-.17-.17-.45,0-.63l3.82-3.82c.17-.17.17-.45,0-.63l-4.14-4.14h0s-1.36-1.36-1.36-1.36c-.17-.17-.45-.17-.63,0l-3.27,3.27c-.17.17-.45.17-.63,0l-3.27-3.27c-.17-.17-.17-.45,0-.63l7.16-7.16c.17-.17.45-.17.63,0l4.94,4.94c.17.17.45.17.63,0l4.1-4.1c.17-.17.17-.45,0-.63l-8.83-8.83c-.17-.17-.17-.45,0-.63l3.27-3.27c.17-.17.45-.17.63,0l8.83,8.83c.17.17.45.17.63,0l9.11-9.11c.17-.17.45-.17.63,0l3.82,3.82c.17.17.45.17.63,0l8.28-8.28c.17-.17.45-.17.63,0l3.83,3.83c.17.17.45.17.63,0l3.83-3.83c.17-.17.45-.17.63,0l3.83,3.83c.17.17.45.17.63,0l3.82-3.82c.17-.17.45-.17.63,0l3.82,3.82c.17.17.17.45,0,.63l-3.82,3.82c-.17.17-.17.45,0,.63l3.83,3.83c.17.17.17.45,0,.63l-3.83,3.83c-.17.17-.17.45,0,.63l3.83,3.83c.17.17.17.45,0,.63l-8.28,8.28c-.17.17-.17.45,0,.63l17.18,17.18c.17.17.45.17.63,0l8.28-8.28c.17-.17.45-.17.63,0l3.83,3.83c.17.17.45.17.63,0l3.83-3.83c.17-.17.45-.17.63,0l3.83,3.83c.17.17.45.17.63,0l3.82-3.82c.17-.17.45-.17.63,0l3.82,3.82c.17.17.17.45,0,.63l-3.82,3.82c-.17.17-.17.45,0,.63l3.83,3.83c.17.17.17.45,0,.63l-3.83,3.83c-.17.17-.17.45,0,.63l3.82,3.82c.17.17.17.45,0,.63l-8.28,8.28c-.17.17-.17.45,0,.63l3.83,3.83c.17.17.17.45,0,.63l-9.11,9.11c-.17.17-.17.45,0,.63l10.17,10.17c.17.17.17.45,0,.63l-3.27,3.27c-.17.17-.45.17-.63,0l-10.17-10.17c-.17-.17-.45-.17-.63,0Z"/><rect class="cls-1" x="23.35" y="26.3" width="5.51" height="5.51" rx=".44" ry=".44" transform="translate(-12.9 26.97) rotate(-45)"/><rect class="cls-1" x="127.38" y="105.29" width="5.51" height="5.51" rx=".44" ry=".44" transform="translate(-38.28 123.67) rotate(-45)"/><rect class="cls-1" x="110.96" y="113.92" width="5.51" height="5.51" rx=".44" ry=".44" transform="translate(-49.19 114.58) rotate(-45)"/></svg>
  </g>
  <!-- Frame 1: iskit_rotate3.svg -->
  <g id="frame1" opacity="0">
    <animate attributeName="opacity" dur="3s" repeatCount="indefinite" calcMode="discrete"
      keyTimes="0;0.125;0.25;1" values="0;1;0;0" />
<svg id="_レイヤー_1" xmlns="http://www.w3.org/2000/svg" viewBox="0 0 159.67 148.36"><defs><style>.cls-1{fill:#7caa4a;}</style></defs><rect class="cls-1" x="105.42" y="3.96" width="5.51" height="5.51" rx=".44" ry=".44"/><path class="cls-1" d="M110.49,123.62h-5.8c-.25,0-.44.2-.44.44v8.87c0,.25-.2.44-.44.44h-10.13c-.25,0-.44-.2-.44-.44v-4.62c0-.25.2-.44.44-.44h4.62c.25,0,.44-.2.44-.44v-3.81s0,0,0,0v-5.85c0-.25-.2-.44-.44-.44h-5.41c-.25,0-.44-.2-.44-.44v-5.41c0-.25-.2-.44-.44-.44h-5.41c-.25,0-.44-.2-.44-.44v-5.41c0-.25-.2-.44-.44-.44h-5.41c-.25,0-.44-.2-.44-.44v-11.71c0-.25-.2-.44-.44-.44H17.31c-.25,0-.44-.2-.44-.44v-5.41c0-.25-.2-.44-.44-.44h-5.41c-.25,0-.44-.2-.44-.44v-5.41c0-.25-.2-.44-.44-.44h-5.41c-.25,0-.44-.2-.44-.44v-11.71c0-.25.2-.44.44-.44h5.41c.25,0,.44-.2.44-.44v-5.41c0-.25.2-.44.44-.44h5.41c.25,0,.44-.2.44-.44v-5.41c0-.25.2-.44.44-.44h62.09c.25,0,.44-.2.44-.44v-11.71c0-.25.2-.44.44-.44h5.41c.25,0,.44-.2.44-.44v-5.41c0-.25.2-.44.44-.44h5.41c.25,0,.44-.2.44-.44v-5.41c0-.25.2-.44.44-.44h5.41c.25,0,.44-.2.44-.44v-5.85h0s0-1.92,0-1.92c0-.25-.2-.44-.44-.44h-4.62c-.25,0-.44-.2-.44-.44v-4.62c0-.25.2-.44.44-.44h10.13c.25,0,.44.2.44.44v6.98c0,.25.2.44.44.44h5.8c.25,0,.44-.2.44-.44v-12.49c0-.25.2-.44.44-.44h4.62c.25,0,.44.2.44.44v12.49c0,.25.2.44.44.44h12.89c.25,0,.44.2.44.44v5.41c0,.25.2.44.44.44h11.71c.25,0,.44.2.44.44v5.41c0,.25.2.44.44.44h5.41c.25,0,.44.2.44.44v5.41c0,.25.2.44.44.44h5.41c.25,0,.44.2.44.44v5.41c0,.25-.2.44-.44.44h-5.41c-.25,0-.44.2-.44.44v5.41c0,.25-.2.44-.44.44h-5.41c-.25,0-.44.2-.44.44v5.41c0,.25-.2.44-.44.44h-11.71c-.25,0-.44.2-.44.44v24.3c0,.25.2.44.44.44h11.71c.25,0,.44.2.44.44v5.41c0,.25.2.44.44.44h5.41c.25,0,.44.2.44.44v5.41c0,.25.2.44.44.44h5.41c.25,0,.44.2.44.44v5.41c0,.25-.2.44-.44.44h-5.41c-.25,0-.44.2-.44.44v5.41c0,.25-.2.44-.44.44h-5.41c-.25,0-.44.2-.44.44v5.41c0,.25-.2.44-.44.44h-11.71c-.25,0-.44.2-.44.44v5.41c0,.25-.2.44-.44.44h-12.89c-.25,0-.44.2-.44.44v14.38c0,.25-.2.44-.44.44h-4.62c-.25,0-.44-.2-.44-.44v-14.38c0-.25-.2-.44-.44-.44Z"/><rect class="cls-1" x="87.71" y="9.47" width="5.51" height="5.51" rx=".44" ry=".44"/><rect class="cls-1" x="105.42" y="138.89" width="5.51" height="5.51" rx=".44" ry=".44"/><rect class="cls-1" x="87.71" y="133.38" width="5.51" height="5.51" rx=".44" ry=".44"/></svg>
  </g>
  <!-- Frame 2: iskit_rotate4.svg -->
  <g id="frame2" opacity="0">
    <animate attributeName="opacity" dur="3s" repeatCount="indefinite" calcMode="discrete"
      keyTimes="0;0.25;0.375;1" values="0;1;0;0" />
<svg id="_レイヤー_1" xmlns="http://www.w3.org/2000/svg" viewBox="0 0 141.13 141.13"><defs><style>.cls-1{fill:#7caa4a;}</style></defs><rect class="cls-1" x="125.98" y="31.91" width="5.51" height="5.51" rx=".44" ry=".44" transform="translate(13.19 101.18) rotate(-45)"/><path class="cls-1" d="M47.71,118.96l-4.1-4.1c-.17-.17-.45-.17-.63,0l-6.27,6.27c-.17.17-.45.17-.63,0l-7.16-7.16c-.17-.17-.17-.45,0-.63l3.27-3.27c.17-.17.45-.17.63,0l3.27,3.27c.17.17.45.17.63,0l2.69-2.69h0s4.14-4.14,4.14-4.14c.17-.17.17-.45,0-.63l-3.82-3.82c-.17-.17-.17-.45,0-.63l3.82-3.82c.17-.17.17-.45,0-.63l-3.83-3.83c-.17-.17-.17-.45,0-.63l3.83-3.83c.17-.17.17-.45,0-.63l-3.83-3.83c-.17-.17-.17-.45,0-.63l8.28-8.28c.17-.17.17-.45,0-.63L4.08,30.8c-.17-.17-.17-.45,0-.63l3.83-3.83c.17-.17.17-.45,0-.63l-3.83-3.83c-.17-.17-.17-.45,0-.63l3.82-3.82c.17-.17.17-.45,0-.63l-3.82-3.82c-.17-.17-.17-.45,0-.63L12.36,4.08c.17-.17.45-.17.63,0l3.82,3.82c.17.17.45.17.63,0l3.82-3.82c.17-.17.45-.17.63,0l3.83,3.83c.17.17.45.17.63,0l3.83-3.83c.17-.17.45-.17.63,0l43.9,43.9c.17.17.45.17.63,0l8.28-8.28c.17-.17.45-.17.63,0l3.83,3.83c.17.17.45.17.63,0l3.83-3.83c.17-.17.45-.17.63,0l3.83,3.83c.17.17.45.17.63,0l3.83-3.83c.17-.17.45-.17.63,0l3.82,3.82c.17.17.45.17.63,0l4.14-4.14h0s1.36-1.35,1.36-1.35c.17-.17.17-.45,0-.63l-3.27-3.27c-.17-.17-.17-.45,0-.63l3.27-3.27c.17-.17.45-.17.63,0l7.16,7.16c.17.17.17.45,0,.63l-4.94,4.94c-.17.17-.17.45,0,.63l4.1,4.1c.17.17.45.17.63,0l8.83-8.83c.17-.17.45-.17.63,0l3.27,3.27c.17.17.17.45,0,.63l-8.83,8.83c-.17.17-.17.45,0,.63l9.11,9.11c.17.17.17.45,0,.63l-3.82,3.82c-.17.17-.17.45,0,.63l8.28,8.28c.17.17.17.45,0,.63l-3.83,3.83c-.17.17-.17.45,0,.63l3.83,3.83c.17.17.17.45,0,.63l-3.83,3.83c-.17.17-.17.45,0,.63l3.82,3.82c.17.17.17.45,0,.63l-3.82,3.82c-.17.17-.45.17-.63,0l-3.82-3.82c-.17-.17-.45-.17-.63,0l-3.83,3.83c-.17.17-.45.17-.63,0l-3.83-3.83c-.17-.17-.45-.17-.63,0l-3.83,3.83c-.17.17-.45.17-.63,0l-8.28-8.28c-.17-.17-.45-.17-.63,0l-17.18,17.18c-.17.17-.17.45,0,.63l8.28,8.28c.17.17.17.45,0,.63l-3.83,3.83c-.17.17-.17.45,0,.63l3.83,3.83c.17.17.17.45,0,.63l-3.83,3.83c-.17.17-.17.45,0,.63l3.82,3.82c.17.17.17.45,0,.63l-3.82,3.82c-.17.17-.45.17-.63,0l-3.82-3.82c-.17-.17-.45-.17-.63,0l-3.83,3.83c-.17.17-.45.17-.63,0l-3.83-3.83c-.17-.17-.45-.17-.63,0l-3.82,3.82c-.17.17-.45.17-.63,0l-8.28-8.28c-.17-.17-.45-.17-.63,0l-3.83,3.83c-.17.17-.45.17-.63,0l-9.11-9.11c-.17-.17-.45-.17-.63,0l-10.17,10.17c-.17.17-.45.17-.63,0l-3.27-3.27c-.17-.17-.17-.45,0-.63l10.17-10.17c.17-.17.17-.45,0-.63Z"/><rect class="cls-1" x="109.56" y="23.28" width="5.51" height="5.51" rx=".44" ry=".44" transform="translate(14.49 87.04) rotate(-45)"/><rect class="cls-1" x="30.57" y="127.31" width="5.51" height="5.51" rx=".44" ry=".44" transform="translate(-82.21 61.66) rotate(-45)"/><rect class="cls-1" x="21.94" y="110.89" width="5.51" height="5.51" rx=".44" ry=".44" transform="translate(-73.13 50.75) rotate(-45)"/></svg>
  </g>
  <!-- Frame 3: iskit_rotate5.svg -->
  <g id="frame3" opacity="0">
    <animate attributeName="opacity" dur="3s" repeatCount="indefinite" calcMode="discrete"
      keyTimes="0;0.375;0.5;1" values="0;1;0;0" />
<svg id="_レイヤー_1" xmlns="http://www.w3.org/2000/svg" viewBox="0 0 148.37 159.81"><defs><style>.cls-1{fill:#7caa4a;}</style></defs><rect class="cls-1" x="138.89" y="105.49" width="5.51" height="5.51" rx=".44" ry=".44"/><path class="cls-1" d="M24.75,110.56v-5.8c0-.25-.2-.44-.44-.44h-8.87c-.25,0-.44-.2-.44-.44v-10.13c0-.25.2-.44.44-.44h4.62c.25,0,.44.2.44.44v4.62c0,.25.2.44.44.44h3.81s0,0,0,0h5.85c.25,0,.44-.2.44-.44v-5.41c0-.25.2-.44.44-.44h5.41c.25,0,.44-.2.44-.44v-5.41c0-.25.2-.44.44-.44h5.41c.25,0,.44-.2.44-.44v-5.41c0-.25.2-.44.44-.44h11.71c.25,0,.44-.2.44-.44V17.37c0-.25.2-.44.44-.44h5.41c.25,0,.44-.2.44-.44v-5.41c0-.25.2-.44.44-.44h5.41c.25,0,.44-.2.44-.44v-5.41c0-.25.2-.44.44-.44h11.71c.25,0,.44.2.44.44v5.41c0,.25.2.44.44.44h5.41c.25,0,.44.2.44.44v5.41c0,.25.2.44.44.44h5.41c.25,0,.44.2.44.44v62.09c0,.25.2.44.44.44h11.71c.25,0,.44.2.44.44v5.41c0,.25.2.44.44.44h5.41c.25,0,.44.2.44.44v5.41c0,.25.2.44.44.44h5.41c.25,0,.44.2.44.44v5.41c0,.25.2.44.44.44h5.85,0s1.92,0,1.92,0c.25,0,.44-.2.44-.44v-4.62c0-.25.2-.44.44-.44h4.62c.25,0,.44.2.44.44v10.13c0,.25-.2.44-.44.44h-6.98c-.25,0-.44.2-.44.44v5.8c0,.25.2.44.44.44h12.49c.25,0,.44.2.44.44v4.62c0,.25-.2.44-.44.44h-12.49c-.25,0-.44.2-.44.44v12.89c0,.25-.2.44-.44.44h-5.41c-.25,0-.44.2-.44.44v11.71c0,.25-.2.44-.44.44h-5.41c-.25,0-.44.2-.44.44v5.41c0,.25-.2.44-.44.44h-5.41c-.25,0-.44.2-.44.44v5.41c0,.25-.2.44-.44.44h-5.41c-.25,0-.44-.2-.44-.44v-5.41c0-.25-.2-.44-.44-.44h-5.41c-.25,0-.44-.2-.44-.44v-5.41c0-.25-.2-.44-.44-.44h-5.41c-.25,0-.44-.2-.44-.44v-11.71c0-.25-.2-.44-.44-.44h-24.3c-.25,0-.44.2-.44.44v11.71c0,.25-.2.44-.44.44h-5.41c-.25,0-.44.2-.44.44v5.41c0,.25-.2.44-.44.44h-5.41c-.25,0-.44.2-.44.44v5.41c0,.25-.2.44-.44.44h-5.41c-.25,0-.44-.2-.44-.44v-5.41c0-.25-.2-.44-.44-.44h-5.41c-.25,0-.44-.2-.44-.44v-5.41c0-.25-.2-.44-.44-.44h-5.41c-.25,0-.44-.2-.44-.44v-11.71c0-.25-.2-.44-.44-.44h-5.41c-.25,0-.44-.2-.44-.44v-12.89c0-.25-.2-.44-.44-.44h-14.38c-.25,0-.44-.2-.44-.44v-4.62c0-.25.2-.44.44-.44h14.38c.25,0,.44-.2.44-.44Z"/><rect class="cls-1" x="133.38" y="87.78" width="5.51" height="5.51" rx=".44" ry=".44"/><rect class="cls-1" x="3.97" y="105.49" width="5.51" height="5.51" rx=".44" ry=".44"/><rect class="cls-1" x="9.48" y="87.78" width="5.51" height="5.51" rx=".44" ry=".44"/></svg>
  </g>
  <!-- Frame 4: iskit_rotate6.svg -->
  <g id="frame4" opacity="0">
    <animate attributeName="opacity" dur="3s" repeatCount="indefinite" calcMode="discrete"
      keyTimes="0;0.5;0.625;1" values="0;1;0;0" />
<svg id="_レイヤー_1" xmlns="http://www.w3.org/2000/svg" viewBox="0 0 141.09 142.88"><defs><style>.cls-1{fill:#7caa4a;}</style></defs><rect class="cls-1" x="103.69" y="126.85" width="5.51" height="5.51" rx=".44" ry=".44" transform="translate(-60.47 113.23) rotate(-45)"/><path class="cls-1" d="M22.15,48.58l4.1-4.1c.17-.17.17-.45,0-.63l-6.27-6.27c-.17-.17-.17-.45,0-.63l7.16-7.16c.17-.17.45-.17.63,0l3.27,3.27c.17.17.17.45,0,.63l-3.27,3.27c-.17.17-.17.45,0,.63l2.69,2.69h0s4.14,4.14,4.14,4.14c.17.17.45.17.63,0l3.82-3.82c.17-.17.45-.17.63,0l3.82,3.82c.17.17.45.17.63,0l3.83-3.83c.17-.17.45-.17.63,0l3.83,3.83c.17.17.45.17.63,0l3.83-3.83c.17-.17.45-.17.63,0l8.28,8.28c.17.17.45.17.63,0L110.31,4.96c.17-.17.45-.17.63,0l3.83,3.83c.17.17.45.17.63,0l3.83-3.83c.17-.17.45-.17.63,0l3.82,3.82c.17.17.45.17.63,0l3.82-3.82c.17-.17.45-.17.63,0l8.28,8.28c.17.17.17.45,0,.63l-3.82,3.82c-.17.17-.17.45,0,.63l3.82,3.82c.17.17.17.45,0,.63l-3.83,3.83c-.17.17-.17.45,0,.63l3.83,3.83c.17.17.17.45,0,.63l-43.9,43.9c-.17.17-.17.45,0,.63l8.28,8.28c.17.17.17.45,0,.63l-3.83,3.83c-.17.17-.17.45,0,.63l3.83,3.83c.17.17.17.45,0,.63l-3.83,3.83c-.17.17-.17.45,0,.63l3.83,3.83c.17.17.17.45,0,.63l-3.82,3.82c-.17.17-.17.45,0,.63l4.14,4.14h0s1.36,1.36,1.36,1.36c.17.17.45.17.63,0l3.27-3.27c.17-.17.45-.17.63,0l3.27,3.27c.17.17.17.45,0,.63l-7.16,7.16c-.17.17-.45.17-.63,0l-4.94-4.94c-.17-.17-.45-.17-.63,0l-4.1,4.1c-.17.17-.17.45,0,.63l8.83,8.83c.17.17.17.45,0,.63l-3.27,3.27c-.17.17-.45.17-.63,0l-8.83-8.83c-.17-.17-.45-.17-.63,0l-9.11,9.11c-.17.17-.45.17-.63,0l-3.82-3.82c-.17-.17-.45-.17-.63,0l-8.28,8.28c-.17.17-.45.17-.63,0l-3.83-3.83c-.17-.17-.45-.17-.63,0l-3.83,3.83c-.17.17-.45.17-.63,0l-3.83-3.83c-.17-.17-.45-.17-.63,0l-3.82,3.82c-.17.17-.45.17-.63,0l-3.82-3.82c-.17-.17-.17-.45,0-.63l3.82-3.82c.17-.17.17-.45,0-.63l-3.83-3.83c-.17-.17-.17-.45,0-.63l3.83-3.83c.17-.17.17-.45,0-.63l-3.83-3.83c-.17-.17-.17-.45,0-.63l8.28-8.28c.17-.17.17-.45,0-.63l-17.18-17.18c-.17-.17-.45-.17-.63,0l-8.28,8.28c-.17.17-.45.17-.63,0l-3.83-3.83c-.17-.17-.45-.17-.63,0l-3.83,3.83c-.17.17-.45.17-.63,0l-3.83-3.83c-.17-.17-.45-.17-.63,0l-3.82,3.82c-.17.17-.45.17-.63,0l-3.82-3.82c-.17-.17-.17-.45,0-.63l3.82-3.82c.17-.17.17-.45,0-.63l-3.83-3.83c-.17-.17-.17-.45,0-.63l3.83-3.83c.17-.17.17-.45,0-.63l-3.82-3.82c-.17-.17-.17-.45,0-.63l8.28-8.28c.17-.17.17-.45,0-.63l-3.83-3.83c-.17-.17-.17-.45,0-.63l9.11-9.11c.17-.17.17-.45,0-.63l-10.17-10.17c-.17-.17-.17-.45,0-.63l3.27-3.27c.17-.17.45-.17.63,0l10.17,10.17c.17.17.45.17.63,0Z"/><rect class="cls-1" x="112.32" y="110.43" width="5.51" height="5.51" rx=".44" ry=".44" transform="translate(-46.33 114.52) rotate(-45)"/><rect class="cls-1" x="8.29" y="31.45" width="5.51" height="5.51" rx=".44" ry=".44" transform="translate(-20.95 17.82) rotate(-45)"/><rect class="cls-1" x="24.71" y="22.82" width="5.51" height="5.51" rx=".44" ry=".44" transform="translate(-10.04 26.91) rotate(-45)"/></svg>
  </g>
  <!-- Frame 5: iskit_rotate7.svg -->
  <g id="frame5" opacity="0">
    <animate attributeName="opacity" dur="3s" repeatCount="indefinite" calcMode="discrete"
      keyTimes="0;0.625;0.75;1" values="0;1;0;0" />
<svg id="_レイヤー_1" xmlns="http://www.w3.org/2000/svg" viewBox="0 0 159.67 148.36"><defs><style>.cls-1{fill:#7caa4a;}</style></defs><rect class="cls-1" x="48.74" y="138.89" width="5.51" height="5.51" rx=".44" ry=".44"/><path class="cls-1" d="M49.19,24.75h5.8c.25,0,.44-.2.44-.44v-8.87c0-.25.2-.44.44-.44h10.13c.25,0,.44.2.44.44v4.62c0,.25-.2.44-.44.44h-4.62c-.25,0-.44.2-.44.44v3.81s0,0,0,0v5.85c0,.25.2.44.44.44h5.41c.25,0,.44.2.44.44v5.41c0,.25.2.44.44.44h5.41c.25,0,.44.2.44.44v5.41c0,.25.2.44.44.44h5.41c.25,0,.44.2.44.44v11.71c0,.25.2.44.44.44h62.09c.25,0,.44.2.44.44v5.41c0,.25.2.44.44.44h5.41c.25,0,.44.2.44.44v5.41c0,.25.2.44.44.44h5.41c.25,0,.44.2.44.44v11.71c0,.25-.2.44-.44.44h-5.41c-.25,0-.44.2-.44.44v5.41c0,.25-.2.44-.44.44h-5.41c-.25,0-.44.2-.44.44v5.41c0,.25-.2.44-.44.44h-62.09c-.25,0-.44.2-.44.44v11.71c0,.25-.2.44-.44.44h-5.41c-.25,0-.44.2-.44.44v5.41c0,.25-.2.44-.44.44h-5.41c-.25,0-.44.2-.44.44v5.41c0,.25-.2.44-.44.44h-5.41c-.25,0-.44.2-.44.44v5.85h0s0,1.92,0,1.92c0,.25.2.44.44.44h4.62c.25,0,.44.2.44.44v4.62c0,.25-.2.44-.44.44h-10.13c-.25,0-.44-.2-.44-.44v-6.98c0-.25-.2-.44-.44-.44h-5.8c-.25,0-.44.2-.44.44v12.49c0,.25-.2.44-.44.44h-4.62c-.25,0-.44-.2-.44-.44v-12.49c0-.25-.2-.44-.44-.44h-12.89c-.25,0-.44-.2-.44-.44v-5.41c0-.25-.2-.44-.44-.44h-11.71c-.25,0-.44-.2-.44-.44v-5.41c0-.25-.2-.44-.44-.44h-5.41c-.25,0-.44-.2-.44-.44v-5.41c0-.25-.2-.44-.44-.44h-5.41c-.25,0-.44-.2-.44-.44v-5.41c0-.25.2-.44.44-.44h5.41c.25,0,.44-.2.44-.44v-5.41c0-.25.2-.44.44-.44h5.41c.25,0,.44-.2.44-.44v-5.41c0-.25.2-.44.44-.44h11.71c.25,0,.44-.2.44-.44v-24.3c0-.25-.2-.44-.44-.44h-11.71c-.25,0-.44-.2-.44-.44v-5.41c0-.25-.2-.44-.44-.44h-5.41c-.25,0-.44-.2-.44-.44v-5.41c0-.25-.2-.44-.44-.44h-5.41c-.25,0-.44-.2-.44-.44v-5.41c0-.25.2-.44.44-.44h5.41c.25,0,.44-.2.44-.44v-5.41c0-.25.2-.44.44-.44h5.41c.25,0,.44-.2.44-.44v-5.41c0-.25.2-.44.44-.44h11.71c.25,0,.44-.2.44-.44v-5.41c0-.25.2-.44.44-.44h12.89c.25,0,.44-.2.44-.44v-14.38c0-.25.2-.44.44-.44h4.62c.25,0,.44.2.44.44v14.38c0,.25.2.44.44.44Z"/><rect class="cls-1" x="66.45" y="133.38" width="5.51" height="5.51" rx=".44" ry=".44"/><rect class="cls-1" x="48.74" y="3.96" width="5.51" height="5.51" rx=".44" ry=".44"/><rect class="cls-1" x="66.45" y="9.47" width="5.51" height="5.51" rx=".44" ry=".44"/></svg>
  </g>
  <!-- Frame 6: iskit_rotate8.svg -->
  <g id="frame6" opacity="0">
    <animate attributeName="opacity" dur="3s" repeatCount="indefinite" calcMode="discrete"
      keyTimes="0;0.75;0.875;1" values="0;1;0;0" />
<svg id="_レイヤー_1" xmlns="http://www.w3.org/2000/svg" viewBox="0 0 141.13 141.13"><defs><style>.cls-1{fill:#7caa4a;}</style></defs><rect class="cls-1" x="9.64" y="103.71" width="5.51" height="5.51" rx=".44" ry=".44" transform="translate(-71.65 39.95) rotate(-45)"/><path class="cls-1" d="M93.42,22.18l4.1,4.1c.17.17.45.17.63,0l6.27-6.27c.17-.17.45-.17.63,0l7.16,7.16c.17.17.17.45,0,.63l-3.27,3.27c-.17.17-.45.17-.63,0l-3.27-3.27c-.17-.17-.45-.17-.63,0l-2.69,2.69h0s-4.14,4.14-4.14,4.14c-.17.17-.17.45,0,.63l3.82,3.82c.17.17.17.45,0,.63l-3.82,3.82c-.17.17-.17.45,0,.63l3.83,3.83c.17.17.17.45,0,.63l-3.83,3.83c-.17.17-.17.45,0,.63l3.83,3.83c.17.17.17.45,0,.63l-8.28,8.28c-.17.17-.17.45,0,.63l43.9,43.9c.17.17.17.45,0,.63l-3.83,3.83c-.17.17-.17.45,0,.63l3.83,3.83c.17.17.17.45,0,.63l-3.82,3.82c-.17.17-.17.45,0,.63l3.82,3.82c.17.17.17.45,0,.63l-8.28,8.28c-.17.17-.45.17-.63,0l-3.82-3.82c-.17-.17-.45-.17-.63,0l-3.82,3.82c-.17.17-.45.17-.63,0l-3.83-3.83c-.17-.17-.45-.17-.63,0l-3.83,3.83c-.17.17-.45.17-.63,0l-43.9-43.9c-.17-.17-.45-.17-.63,0l-8.28,8.28c-.17.17-.45.17-.63,0l-3.83-3.83c-.17-.17-.45-.17-.63,0l-3.83,3.83c-.17.17-.45.17-.63,0l-3.83-3.83c-.17-.17-.45-.17-.63,0l-3.83,3.83c-.17.17-.45.17-.63,0l-3.82-3.82c-.17-.17-.45-.17-.63,0l-4.14,4.14h0s-1.36,1.35-1.36,1.35c-.17.17-.17.45,0,.63l3.27,3.27c.17.17.17.45,0,.63l-3.27,3.27c-.17.17-.45.17-.63,0l-7.16-7.16c-.17-.17-.17-.45,0-.63l4.94-4.94c.17-.17.17-.45,0-.63l-4.1-4.1c-.17-.17-.45-.17-.63,0l-8.83,8.83c-.17.17-.45.17-.63,0l-3.27-3.27c-.17-.17-.17-.45,0-.63l8.83-8.83c.17-.17.17-.45,0-.63l-9.11-9.11c-.17-.17-.17-.45,0-.63l3.82-3.82c.17-.17.17-.45,0-.63l-8.28-8.28c-.17-.17-.17-.45,0-.63l3.83-3.83c.17-.17.17-.45,0-.63l-3.83-3.83c-.17-.17-.17-.45,0-.63l3.83-3.83c.17-.17.17-.45,0-.63l-3.82-3.82c-.17-.17-.17-.45,0-.63l3.82-3.82c.17-.17.45-.17.63,0l3.82,3.82c.17.17.45.17.63,0l3.83-3.83c.17-.17.45-.17.63,0l3.83,3.83c.17.17.45.17.63,0l3.83-3.83c.17-.17.45-.17.63,0l8.28,8.28c.17.17.45.17.63,0l17.18-17.18c.17-.17.17-.45,0-.63l-8.28-8.28c-.17-.17-.17-.45,0-.63l3.83-3.83c.17-.17.17-.45,0-.63l-3.83-3.83c-.17-.17-.17-.45,0-.63l3.83-3.83c.17-.17.17-.45,0-.63l-3.82-3.82c-.17-.17-.17-.45,0-.63l3.82-3.82c.17-.17.45-.17.63,0l3.82,3.82c.17.17.45.17.63,0l3.83-3.83c.17-.17.45-.17.63,0l3.83,3.83c.17.17.45.17.63,0l3.82-3.82c.17-.17.45-.17.63,0l8.28,8.28c.17.17.45.17.63,0l3.83-3.83c.17-.17.45-.17.63,0l9.11,9.11c.17.17.45.17.63,0l10.17-10.17c.17-.17.45-.17.63,0l3.27,3.27c.17.17.17.45,0,.63l-10.17,10.17c-.17.17-.17.45,0,.63Z"/><rect class="cls-1" x="26.06" y="112.34" width="5.51" height="5.51" rx=".44" ry=".44" transform="translate(-72.94 54.09) rotate(-45)"/><rect class="cls-1" x="105.05" y="8.31" width="5.51" height="5.51" rx=".44" ry=".44" transform="translate(23.75 79.47) rotate(-45)"/><rect class="cls-1" x="113.68" y="24.73" width="5.51" height="5.51" rx=".44" ry=".44" transform="translate(14.67 90.38) rotate(-45)"/></svg>
  </g>
  <!-- Frame 7: iskit_rotate9.svg -->
  <g id="frame7" opacity="0">
    <animate attributeName="opacity" dur="3s" repeatCount="indefinite" calcMode="discrete"
      keyTimes="0;0.875;1" values="0;1;0" />
<svg id="_レイヤー_1" xmlns="http://www.w3.org/2000/svg" viewBox="0 0 148.36 159.67"><defs><style>.cls-1{fill:#7caa4a;}</style></defs><rect class="cls-1" x="3.96" y="52.07" width="5.51" height="5.51" rx=".44" ry=".44"/><path class="cls-1" d="M123.62,52.51v5.8c0,.25.2.44.44.44h8.87c.25,0,.44.2.44.44v10.13c0,.25-.2.44-.44.44h-4.62c-.25,0-.44-.2-.44-.44v-4.62c0-.25-.2-.44-.44-.44h-3.81s0,0,0,0h-5.85c-.25,0-.44.2-.44.44v5.41c0,.25-.2.44-.44.44h-5.41c-.25,0-.44.2-.44.44v5.41c0,.25-.2.44-.44.44h-5.41c-.25,0-.44.2-.44.44v5.41c0,.25-.2.44-.44.44h-11.71c-.25,0-.44.2-.44.44v62.09c0,.25-.2.44-.44.44h-5.41c-.25,0-.44.2-.44.44v5.41c0,.25-.2.44-.44.44h-5.41c-.25,0-.44.2-.44.44v5.41c0,.25-.2.44-.44.44h-11.71c-.25,0-.44-.2-.44-.44v-5.41c0-.25-.2-.44-.44-.44h-5.41c-.25,0-.44-.2-.44-.44v-5.41c0-.25-.2-.44-.44-.44h-5.41c-.25,0-.44-.2-.44-.44v-62.09c0-.25-.2-.44-.44-.44h-11.71c-.25,0-.44-.2-.44-.44v-5.41c0-.25-.2-.44-.44-.44h-5.41c-.25,0-.44-.2-.44-.44v-5.41c0-.25-.2-.44-.44-.44h-5.41c-.25,0-.44-.2-.44-.44v-5.41c0-.25-.2-.44-.44-.44h-5.85,0s-1.92,0-1.92,0c-.25,0-.44.2-.44.44v4.62c0,.25-.2.44-.44.44h-4.62c-.25,0-.44-.2-.44-.44v-10.13c0-.25.2-.44.44-.44h6.98c.25,0,.44-.2.44-.44v-5.8c0-.25-.2-.44-.44-.44h-12.49c-.25,0-.44-.2-.44-.44v-4.62c0-.25.2-.44.44-.44h12.49c.25,0,.44-.2.44-.44v-12.89c0-.25.2-.44.44-.44h5.41c.25,0,.44-.2.44-.44v-11.71c0-.25.2-.44.44-.44h5.41c.25,0,.44-.2.44-.44v-5.41c0-.25.2-.44.44-.44h5.41c.25,0,.44-.2.44-.44v-5.41c0-.25.2-.44.44-.44h5.41c.25,0,.44.2.44.44v5.41c0,.25.2.44.44.44h5.41c.25,0,.44.2.44.44v5.41c0,.25.2.44.44.44h5.41c.25,0,.44.2.44.44v11.71c0,.25.2.44.44.44h24.3c.25,0,.44-.2.44-.44v-11.71c0-.25.2-.44.44-.44h5.41c.25,0,.44-.2.44-.44v-5.41c0-.25.2-.44.44-.44h5.41c.25,0,.44-.2.44-.44v-5.41c0-.25.2-.44.44-.44h5.41c.25,0,.44.2.44.44v5.41c0,.25.2.44.44.44h5.41c.25,0,.44.2.44.44v5.41c0,.25.2.44.44.44h5.41c.25,0,.44.2.44.44v11.71c0,.25.2.44.44.44h5.41c.25,0,.44.2.44.44v12.89c0,.25.2.44.44.44h14.38c.25,0,.44.2.44.44v4.62c0,.25-.2.44-.44.44h-14.38c-.25,0-.44.2-.44.44Z"/><rect class="cls-1" x="9.47" y="69.78" width="5.51" height="5.51" rx=".44" ry=".44"/><rect class="cls-1" x="138.89" y="52.07" width="5.51" height="5.51" rx=".44" ry=".44"/><rect class="cls-1" x="133.38" y="69.78" width="5.51" height="5.51" rx=".44" ry=".44"/></svg>
  </g>
</svg>
