<?xml version="1.0" encoding="UTF-8"?><svg id="_レイヤー_1" xmlns="http://www.w3.org/2000/svg" viewBox="0 0 148.37 159.81"><defs><style>.cls-1{fill:#7caa4a;}</style></defs><rect class="cls-1" x="138.89" y="105.49" width="5.51" height="5.51" rx=".44" ry=".44"/><path class="cls-1" d="M24.75,110.56v-5.8c0-.25-.2-.44-.44-.44h-8.87c-.25,0-.44-.2-.44-.44v-10.13c0-.25.2-.44.44-.44h4.62c.25,0,.44.2.44.44v4.62c0,.25.2.44.44.44h3.81s0,0,0,0h5.85c.25,0,.44-.2.44-.44v-5.41c0-.25.2-.44.44-.44h5.41c.25,0,.44-.2.44-.44v-5.41c0-.25.2-.44.44-.44h5.41c.25,0,.44-.2.44-.44v-5.41c0-.25.2-.44.44-.44h11.71c.25,0,.44-.2.44-.44V17.37c0-.25.2-.44.44-.44h5.41c.25,0,.44-.2.44-.44v-5.41c0-.25.2-.44.44-.44h5.41c.25,0,.44-.2.44-.44v-5.41c0-.25.2-.44.44-.44h11.71c.25,0,.44.2.44.44v5.41c0,.25.2.44.44.44h5.41c.25,0,.44.2.44.44v5.41c0,.25.2.44.44.44h5.41c.25,0,.44.2.44.44v62.09c0,.25.2.44.44.44h11.71c.25,0,.44.2.44.44v5.41c0,.25.2.44.44.44h5.41c.25,0,.44.2.44.44v5.41c0,.25.2.44.44.44h5.41c.25,0,.44.2.44.44v5.41c0,.25.2.44.44.44h5.85,0s1.92,0,1.92,0c.25,0,.44-.2.44-.44v-4.62c0-.25.2-.44.44-.44h4.62c.25,0,.44.2.44.44v10.13c0,.25-.2.44-.44.44h-6.98c-.25,0-.44.2-.44.44v5.8c0,.25.2.44.44.44h12.49c.25,0,.44.2.44.44v4.62c0,.25-.2.44-.44.44h-12.49c-.25,0-.44.2-.44.44v12.89c0,.25-.2.44-.44.44h-5.41c-.25,0-.44.2-.44.44v11.71c0,.25-.2.44-.44.44h-5.41c-.25,0-.44.2-.44.44v5.41c0,.25-.2.44-.44.44h-5.41c-.25,0-.44.2-.44.44v5.41c0,.25-.2.44-.44.44h-5.41c-.25,0-.44-.2-.44-.44v-5.41c0-.25-.2-.44-.44-.44h-5.41c-.25,0-.44-.2-.44-.44v-5.41c0-.25-.2-.44-.44-.44h-5.41c-.25,0-.44-.2-.44-.44v-11.71c0-.25-.2-.44-.44-.44h-24.3c-.25,0-.44.2-.44.44v11.71c0,.25-.2.44-.44.44h-5.41c-.25,0-.44.2-.44.44v5.41c0,.25-.2.44-.44.44h-5.41c-.25,0-.44.2-.44.44v5.41c0,.25-.2.44-.44.44h-5.41c-.25,0-.44-.2-.44-.44v-5.41c0-.25-.2-.44-.44-.44h-5.41c-.25,0-.44-.2-.44-.44v-5.41c0-.25-.2-.44-.44-.44h-5.41c-.25,0-.44-.2-.44-.44v-11.71c0-.25-.2-.44-.44-.44h-5.41c-.25,0-.44-.2-.44-.44v-12.89c0-.25-.2-.44-.44-.44h-14.38c-.25,0-.44-.2-.44-.44v-4.62c0-.25.2-.44.44-.44h14.38c.25,0,.44-.2.44-.44Z"/><rect class="cls-1" x="133.38" y="87.78" width="5.51" height="5.51" rx=".44" ry=".44"/><rect class="cls-1" x="3.97" y="105.49" width="5.51" height="5.51" rx=".44" ry=".44"/><rect class="cls-1" x="9.48" y="87.78" width="5.51" height="5.51" rx=".44" ry=".44"/></svg>