<?xml version="1.0" encoding="UTF-8"?><svg id="_レイヤー_1" xmlns="http://www.w3.org/2000/svg" viewBox="0 0 487.51 420"><defs><style>.cls-1{fill:#7caa4a;}</style></defs><path class="cls-1" d="M76.24,387.32v10.82c0,.89-.86,1.53-2.07,1.53H25.46c-1.21,0-2.07-.64-2.07-1.53v-10.82c0-.89.86-1.53,2.07-1.53h12.57c1.21,0,2.07-.64,2.07-1.53v-44.78c0-.89-.86-1.53-2.07-1.53h-12.57c-1.21,0-2.07-.63-2.07-1.53v-10.82c0-.89.86-1.53,2.07-1.53h32.02c1.2,0,2.07.64,2.07,1.53v58.65c0,.89.86,1.53,2.07,1.53h12.57c1.2,0,2.07.63,2.07,1.53ZM60.96,293.21v12.39c0,1.02-1.02,1.75-2.44,1.75h-18.07c-1.42,0-2.44-.73-2.44-1.75v-12.39c0-1.02,1.01-1.75,2.44-1.75h18.07c1.42,0,2.44.73,2.44,1.75Z"/><path class="cls-1" d="M162.24,311.12v11.11c0,1.07.96,1.83,2.32,1.83h14.1c1.35,0,2.32.76,2.32,1.82v12.93c0,1.06-.97,1.82-2.32,1.82h-17.19c-1.35,0-3.09-.76-3.09-1.82v-11.11c0-1.07-.96-1.83-2.32-1.83h-28.98c-1.35,0-2.32.76-2.32,1.83v9.28c0,1.07.96,1.83,2.32,1.83h14.1c1.35,0,2.32.76,2.32,1.82v11.11c0,1.07.96,1.83,2.32,1.83h14.1c1.35,0,2.32.76,2.32,1.82v11.11c0,1.07.96,1.83,2.32,1.83h14.1c1.35,0,2.32.76,2.32,1.82v12.93c0,1.06-.97,1.82-2.32,1.82h-14.1c-1.35,0-2.32.76-2.32,1.83v11.11c0,1.06-.97,1.82-2.32,1.82h-35.93c-1.35,0-2.32-.76-2.32-1.82v-11.11c0-1.07-.96-1.83-2.32-1.83h-14.1c-1.35,0-2.32-.76-2.32-1.82v-12.93c0-1.07.96-1.82,2.32-1.82h17.97c1.35,0,2.32.76,2.32,1.82v11.11c0,1.07.96,1.83,2.32,1.83h28.98c1.35,0,2.32-.76,2.32-1.83v-9.28c0-1.07-.96-1.83-2.32-1.83h-14.1c-1.35,0-2.32-.76-2.32-1.82v-11.11c0-1.07-.96-1.83-2.32-1.83h-14.1c-1.35,0-2.32-.76-2.32-1.82v-11.11c0-1.07-.96-1.83-2.32-1.83h-14.1c-1.35,0-2.32-.76-2.32-1.82v-12.93c0-1.06.96-1.82,2.32-1.82h14.1c1.35,0,2.32-.76,2.32-1.83v-11.11c0-1.06.96-1.82,2.32-1.82h35.93c1.35,0,2.32.76,2.32,1.82Z"/><path class="cls-1" d="M218.34,299.4h15.32c1.2,0,2.07.64,2.07,1.53v46.31c0,.89.86,1.53,2.07,1.53h9.81c1.21,0,2.07-.64,2.07-1.53v-9.29c0-.89.86-1.53,2.07-1.53h12.57c1.21,0,2.07-.64,2.07-1.53v-9.29c0-.89.86-1.53,2.07-1.53h15.32c1.2,0,2.07.64,2.07,1.53v10.82c0,.89-.86,1.53-2.07,1.53h-12.57c-1.21,0-2.07.64-2.07,1.53v9.29c0,.89-.86,1.53-2.07,1.53h-12.57c-1.21,0-2.07.64-2.07,1.53v7.76c0,.89.86,1.53,2.07,1.53h12.57c1.2,0,2.07.64,2.07,1.53l.34,9.29c0,.89.86,1.53,2.06,1.53h12.22c1.2,0,2.07.63,2.07,1.53v23.16c0,.89-.86,1.53-2.07,1.53h-15.32c-1.21,0-2.07-.64-2.07-1.53v-21.63c0-.89-.86-1.53-2.07-1.53h-12.05c-1.2,0-2.07-.64-2.07-1.53l-.52-9.29c0-.89-.86-1.53-2.07-1.53h-9.81c-1.21,0-2.07.64-2.07,1.53v33.97c0,.89-.86,1.53-2.07,1.53h-15.32c-1.21,0-2.07-.64-2.07-1.53v-97.2c0-.89.86-1.53,2.07-1.53Z"/><path class="cls-1" d="M372.44,387.32v10.82c0,.89-.86,1.53-2.07,1.53h-48.72c-1.21,0-2.07-.64-2.07-1.53v-10.82c0-.89.86-1.53,2.07-1.53h12.57c1.21,0,2.07-.64,2.07-1.53v-44.78c0-.89-.86-1.53-2.07-1.53h-12.57c-1.21,0-2.07-.63-2.07-1.53v-10.82c0-.89.86-1.53,2.07-1.53h32.02c1.2,0,2.07.64,2.07,1.53v58.65c0,.89.86,1.53,2.07,1.53h12.57c1.2,0,2.07.63,2.07,1.53ZM357.16,293.21v12.39c0,1.02-1.02,1.75-2.44,1.75h-18.07c-1.42,0-2.44-.73-2.44-1.75v-12.39c0-1.02,1.01-1.75,2.44-1.75h18.07c1.42,0,2.44.73,2.44,1.75Z"/><path class="cls-1" d="M432.79,324.08h29.26c1.2,0,2.07.64,2.07,1.53v10.82c0,.89-.86,1.53-2.07,1.53h-29.26c-1.21,0-2.07.64-2.07,1.53v44.78c0,.89.86,1.53,2.07,1.53h29.26c1.2,0,2.07.63,2.07,1.53v10.82c0,.89-.86,1.53-2.07,1.53h-32.02c-1.21,0-2.07-.64-2.07-1.53v-9.29c0-.89-.86-1.53-2.07-1.53h-12.57c-1.21,0-2.07-.64-2.07-1.53v-46.31c0-.89-.86-1.53-2.07-1.53h-12.56c-1.21,0-2.07-.63-2.07-1.53v-10.82c0-.89.86-1.53,2.07-1.53h12.56c1.21,0,2.07-.64,2.07-1.53v-21.63c0-.89.86-1.53,2.07-1.53h15.32c1.2,0,2.07.64,2.07,1.53v21.63c0,.89.86,1.53,2.07,1.53Z"/><rect class="cls-1" x="192.83" y="30.38" width="9.72" height="9.72" rx=".78" ry=".78" transform="translate(32.98 150.11) rotate(-45)"/><path class="cls-1" d="M346.44,178.22l-7.24,7.24c-.31.31-.31.8,0,1.11l11.07,11.07c.31.31.31.8,0,1.11l-12.64,12.64c-.31.31-.8.31-1.11,0l-5.77-5.77c-.31-.31-.31-.8,0-1.11l5.77-5.77c.31-.31.31-.8,0-1.11l-4.75-4.75h0s-7.3-7.3-7.3-7.3c-.31-.31-.8-.31-1.11,0l-6.75,6.75c-.31.31-.8.31-1.11,0l-6.75-6.75c-.31-.31-.8-.31-1.11,0l-6.75,6.75c-.31.31-.8.31-1.11,0l-6.75-6.75c-.31-.31-.8-.31-1.11,0l-6.75,6.75c-.31.31-.8.31-1.11,0l-14.61-14.61c-.31-.31-.8-.31-1.11,0l-77.47,77.47c-.31.31-.8.31-1.11,0l-6.75-6.75c-.31-.31-.8-.31-1.11,0l-6.75,6.75c-.31.31-.8.31-1.11,0l-6.75-6.75c-.31-.31-.8-.31-1.11,0l-6.75,6.75c-.31.31-.8.31-1.11,0l-14.61-14.61c-.31-.31-.31-.8,0-1.11l6.75-6.75c.31-.31.31-.8,0-1.11l-6.75-6.75c-.31-.31-.31-.8,0-1.11l6.75-6.75c.31-.31.31-.8,0-1.11l-6.75-6.75c-.31-.31-.31-.8,0-1.11l77.47-77.47c.31-.31.31-.8,0-1.11l-14.61-14.61c-.31-.31-.31-.8,0-1.11l6.75-6.75c.31-.31.31-.8,0-1.11l-6.75-6.75c-.31-.31-.31-.8,0-1.11l6.75-6.75c.31-.31.31-.8,0-1.11l-6.75-6.75c-.31-.31-.31-.8,0-1.11l6.75-6.75c.31-.31.31-.8,0-1.11l-7.3-7.3h0s-2.39-2.4-2.39-2.4c-.31-.31-.8-.31-1.11,0l-5.77,5.77c-.31.31-.8.31-1.11,0l-5.77-5.77c-.31-.31-.31-.8,0-1.11l12.64-12.64c.31-.31.8-.31,1.11,0l8.72,8.72c.31.31.8.31,1.11,0l7.24-7.24c.31-.31.31-.8,0-1.11l-15.59-15.59c-.31-.31-.31-.8,0-1.11l5.77-5.77c.31-.31.8-.31,1.11,0l15.59,15.59c.31.31.8.31,1.11,0l16.08-16.08c.31-.31.8-.31,1.11,0l6.75,6.75c.31.31.8.31,1.11,0l14.61-14.61c.31-.31.8-.31,1.11,0l6.75,6.75c.31.31.8.31,1.11,0l6.75-6.75c.31-.31.8-.31,1.11,0l6.75,6.75c.31.31.8.31,1.11,0l6.75-6.75c.31-.31.8-.31,1.11,0l6.75,6.75c.31.31.31.8,0,1.11l-6.75,6.75c-.31.31-.31.8,0,1.11l6.75,6.75c.31.31.31.8,0,1.11l-6.75,6.75c-.31.31-.31.8,0,1.11l6.75,6.75c.31.31.31.8,0,1.11l-14.61,14.61c-.31.31-.31.8,0,1.11l30.32,30.32c.31.31.8.31,1.11,0l14.61-14.61c.31-.31.8-.31,1.11,0l6.75,6.75c.31.31.8.31,1.11,0l6.75-6.75c.31-.31.8-.31,1.11,0l6.75,6.75c.31.31.8.31,1.11,0l6.75-6.75c.31-.31.8-.31,1.11,0l6.75,6.75c.31.31.31.8,0,1.11l-6.75,6.75c-.31.31-.31.8,0,1.11l6.75,6.75c.31.31.31.8,0,1.11l-6.75,6.75c-.31.31-.31.8,0,1.11l6.75,6.75c.31.31.31.8,0,1.11l-14.61,14.61c-.31.31-.31.8,0,1.11l6.75,6.75c.31.31.31.8,0,1.11l-16.08,16.08c-.31.31-.31.8,0,1.11l17.95,17.95c.31.31.31.8,0,1.11l-5.77,5.77c-.31.31-.8.31-1.11,0l-17.95-17.95c-.31-.31-.8-.31-1.11,0Z"/><rect class="cls-1" x="177.6" y="59.36" width="9.72" height="9.72" rx=".78" ry=".78" transform="translate(8.03 147.83) rotate(-45)"/><rect class="cls-1" x="361.18" y="198.74" width="9.72" height="9.72" rx=".78" ry=".78" transform="translate(-36.75 318.47) rotate(-45)"/><rect class="cls-1" x="332.21" y="213.96" width="9.72" height="9.72" rx=".78" ry=".78" transform="translate(-56.01 302.44) rotate(-45)"/></svg>