<?xml version="1.0" encoding="UTF-8"?><svg id="_レイヤー_1" xmlns="http://www.w3.org/2000/svg" viewBox="0 0 154.88 155.25"><defs><style>.cls-1{fill:#7caa4a;}</style></defs><rect class="cls-1" x="34.19" y="9.46" width="6.17" height="6.17" rx=".5" ry=".5" transform="translate(2.04 30.03) rotate(-45)"/><path class="cls-1" d="M131.58,103.2l-4.59,4.59c-.19.19-.19.51,0,.7l7.02,7.02c.19.19.19.51,0,.7l-8.02,8.02c-.19.19-.51.19-.7,0l-3.66-3.66c-.19-.19-.19-.51,0-.7l3.66-3.66c.19-.19.19-.51,0-.7l-3.01-3.01h0s-4.63-4.63-4.63-4.63c-.19-.19-.51-.19-.7,0l-4.28,4.28c-.19.19-.51.19-.7,0l-4.28-4.28c-.19-.19-.51-.19-.7,0l-4.28,4.28c-.19.19-.51.19-.7,0l-4.28-4.28c-.19-.19-.51-.19-.7,0l-4.28,4.28c-.19.19-.51.19-.7,0l-9.26-9.26c-.19-.19-.51-.19-.7,0l-49.12,49.12c-.19.19-.51.19-.7,0l-4.28-4.28c-.19-.19-.51-.19-.7,0l-4.28,4.28c-.19.19-.51.19-.7,0l-4.28-4.28c-.19-.19-.51-.19-.7,0l-4.28,4.28c-.19.19-.51.19-.7,0l-9.26-9.26c-.19-.19-.19-.51,0-.7l4.28-4.28c.19-.19.19-.51,0-.7l-4.28-4.28c-.19-.19-.19-.51,0-.7l4.28-4.28c.19-.19.19-.51,0-.7l-4.28-4.28c-.19-.19-.19-.51,0-.7l49.12-49.12c.19-.19.19-.51,0-.7l-9.26-9.26c-.19-.19-.19-.51,0-.7l4.28-4.28c.19-.19.19-.51,0-.7l-4.28-4.28c-.19-.19-.19-.51,0-.7l4.28-4.28c.19-.19.19-.51,0-.7l-4.28-4.28c-.19-.19-.19-.51,0-.7l4.28-4.28c.19-.19.19-.51,0-.7l-4.63-4.63h0s-1.52-1.52-1.52-1.52c-.19-.19-.51-.19-.7,0l-3.66,3.66c-.19.19-.51.19-.7,0l-3.66-3.66c-.19-.19-.19-.51,0-.7l8.02-8.02c.19-.19.51-.19.7,0l5.53,5.53c.19.19.51.19.7,0l4.59-4.59c.19-.19.19-.51,0-.7l-9.88-9.88c-.19-.19-.19-.51,0-.7l3.66-3.66c.19-.19.51-.19.7,0l9.88,9.88c.19.19.51.19.7,0l10.2-10.2c.19-.19.51-.19.7,0l4.28,4.28c.19.19.51.19.7,0l9.26-9.26c.19-.19.51-.19.7,0l4.28,4.28c.19.19.51.19.7,0l4.28-4.28c.19-.19.51-.19.7,0l4.28,4.28c.19.19.51.19.7,0l4.28-4.28c.19-.19.51-.19.7,0l4.28,4.28c.19.19.19.51,0,.7l-4.28,4.28c-.19.19-.19.51,0,.7l4.28,4.28c.19.19.19.51,0,.7l-4.28,4.28c-.19.19-.19.51,0,.7l4.28,4.28c.19.19.19.51,0,.7l-9.26,9.26c-.19.19-.19.51,0,.7l19.22,19.22c.19.19.51.19.7,0l9.26-9.26c.19-.19.51-.19.7,0l4.28,4.28c.19.19.51.19.7,0l4.28-4.28c.19-.19.51-.19.7,0l4.28,4.28c.19.19.51.19.7,0l4.28-4.28c.19-.19.51-.19.7,0l4.28,4.28c.19.19.19.51,0,.7l-4.28,4.28c-.19.19-.19.51,0,.7l4.28,4.28c.19.19.19.51,0,.7l-4.28,4.28c-.19.19-.19.51,0,.7l4.28,4.28c.19.19.19.51,0,.7l-9.26,9.26c-.19.19-.19.51,0,.7l4.28,4.28c.19.19.19.51,0,.7l-10.2,10.2c-.19.19-.19.51,0,.7l11.38,11.38c.19.19.19.51,0,.7l-3.66,3.66c-.19.19-.51.19-.7,0l-11.38-11.38c-.19-.19-.51-.19-.7,0Z"/><rect class="cls-1" x="24.54" y="27.84" width="6.17" height="6.17" rx=".5" ry=".5" transform="translate(-13.77 28.59) rotate(-45)"/><rect class="cls-1" x="140.93" y="116.21" width="6.17" height="6.17" rx=".5" ry=".5" transform="translate(-42.17 136.77) rotate(-45)"/><rect class="cls-1" x="122.56" y="125.86" width="6.17" height="6.17" rx=".5" ry=".5" transform="translate(-54.38 126.61) rotate(-45)"/></svg>